# xmcd CD database file
#
# Track frame offsets:
#	180
#	15484
#	27984
#	41107
#	57157
#	73884
#	90755
#	107483
#	121581
#	136804
#
# Disc length: 2033 seconds
#
# Revision: 0
# Processed by: cddbd v1.5PL3 Copyright (c) Steve Scherf et al.
# Submitted via: CDex 1.51
#
DISCID=7507ef0a
DTITLE=James Lynch - Interstate 40
DYEAR=1994
DGENRE=Country
TTITLE0=Let It Go
TTITLE1=Interstate 40
TTITLE2=No News Is Good News
TTITLE3=Rough And Ready
TTITLE4=The Lonesome Cowboy
TTITLE5=Down Where I Come From
TTITLE6=Gotta Have That Harley
TTITLE7=Share It All
TTITLE8=Walkin And Talkin
TTITLE9=It's A Sin
EXTD=YEAR: 1994
EXTT0=
EXTT1=
EXTT2=
EXTT3=
EXTT4=
EXTT5=
EXTT6=
EXTT7=
EXTT8=
EXTT9=
PLAYORDER=
